# xmcd
#
# Track frame offsets:
#	150
#	19822
#	37745
#	63507
#	87417
#	96867
#	117079
#	137929
#	154894
#
# Disc length: 2130 seconds
#
# Revision: 1
# Processed by: cddbd v1.5.2PL0 Copyright (c) Steve Scherf et al.
# Submitted via: audiograbber 1.83.01
#
DISCID=71085009
DTITLE=keef hartley band - seventy second brave
DYEAR=1972
DGENRE=blues rock
TTITLE0=Heartbreakin´ Woman 
TTITLE1=Marin County 
TTITLE2=Hard Pill To Swallow 
TTITLE3=Don´t You Be Long 
TTITLE4=Nicturns 
TTITLE5=Don´t Sign It 
TTITLE6=Always Thinking Of You 
TTITLE7=You Say You´re Together Now 
TTITLE8=What It Is 
EXTD=
EXTT0=
EXTT1=
EXTT2=
EXTT3=
EXTT4=
EXTT5=
EXTT6=
EXTT7=
EXTT8=
PLAYORDER=
